<mxfile host="app.diagrams.net" modified="2024-03-18T21:31:24.602Z" agent="Mozilla/5.0 (Windows NT 10.0; Win64; x64) AppleWebKit/537.36 (KHTML, like Gecko) Chrome/122.0.0.0 Safari/537.36" version="24.0.1" etag="8I3sHZFrAWJTA2gRGiQ8" type="github">
  <diagram name="Page-1" id="V7gZmHXejr7W4XS1QPVi">
    <mxGraphModel>
      <root>
        <mxCell id="0" />
        <mxCell id="1" parent="0" />
      </root>
    </mxGraphModel>
  </diagram>
</mxfile>
